<?xml version="1.0" encoding="UTF-8"?>
<!-- Iberdrola tricolor flame/leaf symbol (icon only). Derived from the master lockup. -->
<svg xmlns="http://www.w3.org/2000/svg" viewBox="55 43 65 57" width="65" height="57" role="img" aria-label="Iberdrola">
  <defs>
    <style>
      .cls-1 { fill: #0da9ff; }
      .cls-2 { fill: #00a443; }
      .cls-3 { fill: #ff9c1a; }
    </style>
  </defs>
  <path class="cls-3" d="M93.12,79.58c0,2.84.93,6.65,3.99,9.71,4.94,4.94,11.64,4.93,15.92,2.61,5.23-2.84,17-11.35,4.78-46.66,0,16.67-24.68,18.36-24.68,34.34h0Z"></path>
  <path class="cls-1" d="M104.36,59.84c-.81-4.37-2.11-8.84-4.06-14.59,0,16.67-24.68,18.36-24.68,34.34,0,2.84.93,6.65,3.99,9.71,4.94,4.94,11.69,4.92,15.92,2.61-9.83-10.47-6.36-22.58,8.84-32.07h0Z"></path>
  <path class="cls-2" d="M86.86,59.84c-.81-4.37-2.11-8.84-4.06-14.59,0,16.67-24.68,18.36-24.68,34.34,0,8.2,6.64,11.8,6.64,11.8,0,0-1.66,6.03-.63,13.37l3.17-.53c-1.55-5.39-.6-11.25-.5-11.83,4.05,1.62,8.23,1.14,11.23-.5-9.83-10.47-6.36-22.58,8.84-32.07h0Z"></path>
</svg>
